<svg width="113" height="113" viewBox="0 0 113 113" fill="none" xmlns="http://www.w3.org/2000/svg">
<g filter="url(#filter0_b_233_670)">
<g clip-path="url(#clip0_233_670)">
<rect x="0.498047" y="0.101562" width="112.5" height="112.5" rx="56.25" fill="#2DDB9C" fillOpacity="0.16"/>
<g clip-path="url(#clip1_233_670)">
<path d="M123.183 72.543C113.967 109.508 76.5235 132.004 39.5504 122.786C2.59268 113.57 -19.9058 76.1288 -10.6853 39.1672C-1.47284 2.19848 35.9706 -20.2992 72.9323 -11.0837C109.903 -1.86828 132.4 35.5773 123.182 72.5437L123.183 72.543H123.183Z" fill="#F7931A"/>
<path d="M86.6779 46.0207C88.0514 36.8383 81.0598 31.9025 71.4993 28.6097L74.6008 16.1714L67.0283 14.2847L64.0091 26.3956C62.0183 25.8991 59.974 25.4313 57.942 24.9676L60.9832 12.7768L53.4154 10.8901L50.3122 23.3244C48.6648 22.9494 47.0468 22.5788 45.477 22.1882L45.4858 22.1491L35.0432 19.5417L33.0288 27.6286C33.0288 27.6286 38.6469 28.9163 38.5285 28.9956C41.595 29.7608 42.1495 31.7905 42.0574 33.3992L38.5245 47.5695C38.7356 47.6231 39.0095 47.7007 39.3118 47.8221C39.0591 47.7593 38.7903 47.6909 38.5113 47.6241L33.5594 67.4745C33.1846 68.4061 32.2334 69.804 30.0895 69.2732C30.1654 69.3831 24.5858 67.8998 24.5858 67.8998L20.8262 76.5669L30.6805 79.0232C32.5137 79.4829 34.3102 79.9638 36.0794 80.4161L32.9458 92.9971L40.5095 94.8838L43.6127 82.4363C45.679 82.9972 47.6843 83.5146 49.6474 84.0022L46.5547 96.391L54.1275 98.2777L57.2607 85.7203C70.1733 88.1638 79.8826 87.1786 83.9694 75.5005C87.2625 66.0982 83.8055 60.6749 77.0122 57.1384C81.9601 55.9974 85.6869 52.7435 86.6806 46.0217L86.6783 46.0201L86.6779 46.0207ZM69.3766 70.2789C67.0364 79.6812 51.2041 74.5986 46.071 73.3241L50.2293 56.6564C55.362 57.9377 71.8224 60.4732 69.377 70.2789H69.3766ZM71.7185 45.8845C69.5837 54.4369 56.4063 50.0919 52.1316 49.0264L55.9017 33.9099C60.1763 34.9753 73.9424 36.9638 71.7192 45.8845H71.7185Z" fill="white"/>
</g>
</g>
<rect x="0.998047" y="0.601562" width="111.5" height="111.5" rx="55.75" stroke="white" stroke-opacity="0.05"/>
</g>
<defs>
<filter id="filter0_b_233_670" x="-24.502" y="-24.8984" width="162.5" height="162.5" filterUnits="userSpaceOnUse" color-interpolation-filters="sRGB">
<feFlood flood-opacity="0" result="BackgroundImageFix"/>
<feGaussianBlur in="BackgroundImageFix" stdDeviation="12.5"/>
<feComposite in2="SourceAlpha" operator="in" result="effect1_backgroundBlur_233_670"/>
<feBlend mode="normal" in="SourceGraphic" in2="effect1_backgroundBlur_233_670" result="shape"/>
</filter>
<clipPath id="clip0_233_670">
<rect x="0.498047" y="0.101562" width="112.5" height="112.5" rx="56.25" fill="white"/>
</clipPath>
<clipPath id="clip1_233_670">
<rect width="138" height="138" fill="white" transform="translate(-12.752 -13.1484)"/>
</clipPath>
</defs>
</svg>
